<?xml version="1.0" encoding="utf-8"?>
<!-- Generator: Adobe Illustrator 18.1.1, SVG Export Plug-In . SVG Version: 6.00 Build 0)  -->
<svg version="1.1" id="Layer_1" xmlns="http://www.w3.org/2000/svg" xmlns:xlink="http://www.w3.org/1999/xlink" x="0px" y="0px"
	 viewBox="0 0 50 50" enable-background="new 0 0 50 50" xml:space="preserve">
<path d="M45.8,28v-5.5l-3.9-1.1c-0.4-2-1.2-3.9-2.2-5.5l2-3.5l-3.9-3.9l-3.4,1.9c-1.7-1.1-3.6-1.9-5.7-2.4l-1-3.7h-5.5l-1,3.7
	c-2.1,0.5-4,1.3-5.7,2.4l-3.4-1.9l-3.9,3.9l2,3.5c-1,1.7-1.8,3.5-2.2,5.5l-3.9,1.1V28l4.1,1.1c0.5,1.9,1.2,3.6,2.2,5.2l-2.2,3.8
	l3.9,3.9l3.9-2.2c1.5,0.9,3.2,1.6,5,2l1.2,4.3h5.5l1.2-4.3c1.8-0.4,3.5-1.1,5-2l3.9,2.2l3.9-3.9l-2.2-3.8c1-1.6,1.8-3.3,2.2-5.2
	L45.8,28z M25,36.7c-6.4,0-11.7-5.2-11.7-11.7S18.6,13.3,25,13.3S36.7,18.6,36.7,25S31.4,36.7,25,36.7z"/>
</svg>
