<?xml version="1.0" encoding="utf-8"?>
<!-- Generator: Adobe Illustrator 18.1.1, SVG Export Plug-In . SVG Version: 6.00 Build 0)  -->
<svg version="1.1" id="Layer_1" xmlns="http://www.w3.org/2000/svg" xmlns:xlink="http://www.w3.org/1999/xlink" x="0px" y="0px"
	 viewBox="0 0 64 111.7" enable-background="new 0 0 64 111.7" xml:space="preserve">
<path fill="#9A1B2F" stroke="#FFFFFF" stroke-width="6" stroke-miterlimit="10" d="M32,0C14.3,0,0,14.3,0,32c0,14.6,21.8,58.6,29.4,77.2c1.4,3.5,3.8,3.5,5.2,0C42.2,90.6,64,46.6,64,32
	C64,14.3,49.7,0,32,0z"/>
<g>
	<g>
		<g>
			<g>
				<g>
					<path fill="#FFFFFF" d="M36.2,49.7c0,0,1.9-0.8,3-4.1c0.9,2,0.7,4,0.7,4C39.1,49.8,36.2,49.7,36.2,49.7z"/>
					<path fill="#FFFFFF" d="M46.7,31.2c0,0,1.2,6.5-3,6.7c-4.1,0.2-6-5.9-6-5.9s1,12,6.7,11.2C50.8,42.3,46.7,31.2,46.7,31.2z"/>
				</g>
			</g>
			<path fill="#FFFFFF" d="M15.8,48.1C15.8,48.1,15.8,48.1,15.8,48.1c4.8-1.1,8.4-6.6,9.4-8.9l0.7-1.4l0.4,1.5
				c0,0.1,0.5,1.7,0.5,3.9c0,0.2,0,0.5,0,0.7c1.6,0.1,2.8-0.3,3.5-1c1-1.1,1.4-3.1,1-6.3c-0.2-1.5-0.7-3.9-1.2-6
				c-0.3-1.1-0.5-2.1-0.6-2.8c-0.9-4.6,0.2-7.4,1.3-9c0.2-0.3,0.4-0.5,0.6-0.7c-3.3,1.1-6,2.8-8.9,5.7l2,2.3l0.8-0.8
				c0.8,2.9,0.2,5.5,0.2,5.5c-1.1-1.6-2.3-2.9-2.3-2.9l0.5-0.9l-1.8-2.1l-0.2-0.2c-2.2,3-2.9,5.5-2.9,5.5l1.6,1.4l0.9,0.8l0.3-0.9
				c1.7,3.2,0.1,6.1,0.1,6.1c-0.3-1.1-1.4-2.7-1.4-2.7l0.4-1.5l-2.3-2.1c-2.4,7.6-5.7,10.1-5.7,10.1s3.5-0.6,5.5-1.3
				C18.2,40.5,18.2,44.5,15.8,48.1z"/>
			<path fill="#FFFFFF" d="M51.2,20.7l-5.6,0.2c0,0.7-0.1,1.3-0.3,2c0.5,2.3,0.2,3.5,0.2,3.5c-0.9-2.2-1.7-2.8-1.7-2.8
				c-5.1-2.3-8,2.9-7.7,6.2c0.3,2.8,1.2,6.4,2,12.1c0.7,4.8-1.8,6.9-4.6,7.4c-0.1,0-0.1,0-0.2,0c0,0,0,0,0,0
				c-0.5,0.1-0.9,0.1-1.4,0.1c0,0,0,0-0.1,0c-0.1,0-0.1,0-0.2,0c-0.2,0-0.4,0-0.7-0.1c-2.2-0.3-7.1-1.2-12.1-1.3
				c3-1.7,5.3-4.7,6.6-6.9c0.1,0.6,0.1,1.3,0.1,2.1c0,0.4,0,0.8-0.1,1.2l0,0.6l0.6,0.1c2.3,0.2,4-0.2,5-1.4c1.3-1.4,1.7-3.7,1.3-7.2
				c-0.2-1.6-0.8-4-1.2-6.1c-0.3-1.1-0.5-2.1-0.6-2.8c-0.8-4.2,0.2-6.7,1.1-8.1c0.8-1.1,1.8-1.9,3-2.3c0,0,0,0,0.1,0l1.9-5.9h0.6
				L36,17.1c0.3-0.1,0.6-0.1,0.9-0.1l1.6-5.2h0.6L38,16.8c1.7-0.2,3.6-0.4,5.6-0.5c0.3,0.1,0.7,0.5,1,1.1l5.4-1.7l0.2,0.6l-5.2,2
				c0,0.1,0.1,0.2,0.1,0.3l5.6-0.7l0.1,0.6l-5.5,1.1c0,0.1,0,0.2,0,0.3l5.7,0.2L51.2,20.7z M35,23.2c1.1-0.8,3.1-1.4,4.9-1.3
				c0.5,0,0.8-0.1,0.4-0.3c-1.4-0.7-4.5-0.5-5.6,0.3c-1.8,1.2-1.5,3.4-1.4,3.4C33.5,24.7,34.1,23.8,35,23.2z"/>
		</g>
	</g>
</g>
</svg>
